<svg width="20" height="20" viewBox="0 0 20 20" fill="none" xmlns="http://www.w3.org/2000/svg">
<g clip-path="url(#clip0_124312_4)">
<path d="M6.66675 14.5833C6.66675 13.893 6.10711 13.3333 5.41675 13.3333C4.72639 13.3333 4.16675 13.893 4.16675 14.5833C4.16675 15.2737 4.72639 15.8333 5.41675 15.8333C6.10711 15.8333 6.66675 15.2737 6.66675 14.5833Z" fill="white"/>
<path d="M8.33333 15.8333C7.8731 15.8333 7.5 15.4602 7.5 15V14.1666C7.5 13.7064 7.87309 13.3333 8.33333 13.3333H15C15.4602 13.3333 15.8333 13.7064 15.8333 14.1666V15C15.8333 15.4602 15.4602 15.8333 15 15.8333H8.33333Z" fill="white"/>
<path d="M15.8333 10.8334V10C15.8333 9.53977 15.4602 9.16669 15 9.16669H11.25C10 9.16669 9.16667 6.66669 10.8333 6.66669L15.0003 6.66669C15.4606 6.66669 15.8333 6.2936 15.8333 5.83335V5.00002C15.8333 4.53977 15.4602 4.16669 15 4.16669L10 4.16669C8.33333 4.16669 7.5 5.41669 7.5 7.08335C7.5 8.75002 8.75 9.16669 8.75 9.16669H8.33333C7.87309 9.16669 7.5 9.53977 7.5 10V10.8334C7.5 11.2936 7.8731 11.6667 8.33333 11.6667H15C15.4602 11.6667 15.8333 11.2936 15.8333 10.8334Z" fill="white"/>
<path fill-rule="evenodd" clip-rule="evenodd" d="M0.833252 3.33336C0.833252 1.95261 1.95254 0.833355 3.33325 0.833355H16.6666C18.0473 0.833355 19.1666 1.95261 19.1666 3.33336V16.6667C19.1666 18.0474 18.0473 19.1667 16.6666 19.1667H3.33325C1.95254 19.1667 0.833252 18.0474 0.833252 16.6667L0.833252 3.33336ZM2.49992 3.33336C2.49992 2.87311 2.87302 2.50002 3.33325 2.50002H16.6666C17.1268 2.50002 17.4999 2.87311 17.4999 3.33336V16.6667C17.4999 17.1269 17.1268 17.5 16.6666 17.5H3.33325C2.87302 17.5 2.49992 17.1269 2.49992 16.6667L2.49992 3.33336Z" fill="white"/>
</g>
<defs>
<clipPath id="clip0_124312_4">
<rect width="20" height="20" fill="white" transform="matrix(0 -1 1 0 0 20)"/>
</clipPath>
</defs>
</svg>
 